<svg width="640" height="620" viewBox="0 0 640 620" xmlns="http://www.w3.org/2000/svg">
    <rect width="640" height="620" rx="20" fill="#FFFFFF" stroke="#CBB99C" stroke-width="1.5"/>
    <text x="320" y="52" text-anchor="middle" font-size="24" font-weight="800" font-family="-apple-system, 'Helvetica Neue', Arial, sans-serif" fill="#171512">Combination Skin Balance</text>
    <text x="320" y="82" text-anchor="middle" font-size="14" font-family="-apple-system, 'Helvetica Neue', Arial, sans-serif" fill="#888888">6 core ingredients — here's how much each one matters</text>
    <polygon points="320.0,274.0 342.5,287.0 342.5,313.0 320.0,326.0 297.5,313.0 297.5,287.0" fill="none" stroke="#CBB99C" stroke-width="1" opacity="0.35"/><polygon points="320.0,248.0 365.0,274.0 365.0,326.0 320.0,352.0 275.0,326.0 275.0,274.0" fill="none" stroke="#CBB99C" stroke-width="1" opacity="0.35"/><polygon points="320.0,222.0 387.5,261.0 387.5,339.0 320.0,378.0 252.5,339.0 252.5,261.0" fill="none" stroke="#CBB99C" stroke-width="1" opacity="0.35"/><polygon points="320.0,196.0 410.1,248.0 410.1,352.0 320.0,404.0 229.9,352.0 229.9,248.0" fill="none" stroke="#CBB99C" stroke-width="1" opacity="0.35"/><polygon points="320.0,170.0 432.6,235.0 432.6,365.0 320.0,430.0 207.4,365.0 207.4,235.0" fill="none" stroke="#CBB99C" stroke-width="1" opacity="0.9"/><line x1="320" y1="300" x2="320.0" y2="170.0" stroke="#CBB99C" stroke-width="1" opacity="0.5"/><line x1="320" y1="300" x2="432.6" y2="235.0" stroke="#CBB99C" stroke-width="1" opacity="0.5"/><line x1="320" y1="300" x2="432.6" y2="365.0" stroke="#CBB99C" stroke-width="1" opacity="0.5"/><line x1="320" y1="300" x2="320.0" y2="430.0" stroke="#CBB99C" stroke-width="1" opacity="0.5"/><line x1="320" y1="300" x2="207.4" y2="365.0" stroke="#CBB99C" stroke-width="1" opacity="0.5"/><line x1="320" y1="300" x2="207.4" y2="235.0" stroke="#CBB99C" stroke-width="1" opacity="0.5"/><polygon points="320.0,196.0 387.5,261.0 387.5,339.0 320.0,404.0 252.5,339.0 229.9,248.0" fill="#1baf7a" fill-opacity="0.18" stroke="#1baf7a" stroke-width="2.5"/><circle cx="320.0" cy="196.0" r="4" fill="#1baf7a"/><circle cx="387.5" cy="261.0" r="4" fill="#1baf7a"/><circle cx="387.5" cy="339.0" r="4" fill="#1baf7a"/><circle cx="320.0" cy="404.0" r="4" fill="#1baf7a"/><circle cx="252.5" cy="339.0" r="4" fill="#1baf7a"/><circle cx="229.9" cy="248.0" r="4" fill="#1baf7a"/><text x="320.0" y="140.0" text-anchor="middle" dy="0" font-size="15" font-family="-apple-system, 'Helvetica Neue', Arial, sans-serif" fill="#888888">Hyaluronic Acid</text><text x="458.6" y="220.0" text-anchor="start" dy="4" font-size="15" font-family="-apple-system, 'Helvetica Neue', Arial, sans-serif" fill="#888888">AHA</text><text x="458.6" y="380.0" text-anchor="start" dy="4" font-size="15" font-family="-apple-system, 'Helvetica Neue', Arial, sans-serif" fill="#888888">Ceramide</text><text x="320.0" y="460.0" text-anchor="middle" dy="10" font-size="15" font-family="-apple-system, 'Helvetica Neue', Arial, sans-serif" fill="#888888">Vitamin C</text><text x="181.4" y="380.0" text-anchor="end" dy="4" font-size="15" font-family="-apple-system, 'Helvetica Neue', Arial, sans-serif" fill="#888888">Retinol</text><text x="181.4" y="220.0" text-anchor="end" dy="4" font-size="15" font-family="-apple-system, 'Helvetica Neue', Arial, sans-serif" fill="#888888">Niacinamide</text>
    <text x="320" y="596" text-anchor="middle" font-size="13" font-family="-apple-system, 'Helvetica Neue', Arial, sans-serif" fill="#888888">Hoppy · myroutinediet.com</text>
  </svg>